<?xml version="1.0" standalone="no"?>
<!DOCTYPE svg PUBLIC "-//W3C//DTD SVG 20010904//EN"
 "http://www.w3.org/TR/2001/REC-SVG-20010904/DTD/svg10.dtd">
<svg version="1.0" xmlns="http://www.w3.org/2000/svg"
 width="440.000000pt" height="440.000000pt" viewBox="0 0 440.000000 440.000000"
 preserveAspectRatio="xMidYMid meet">
<metadata>
Created by potrace 1.14, written by Peter Selinger 2001-2017
</metadata>
<g transform="translate(0.000000,440.000000) scale(0.100000,-0.100000)"
fill="#000000" stroke="none">
<path d="M2098 3515 c-2 -2 -47 -6 -101 -9 -53 -4 -103 -9 -110 -11 -6 -2 -28
-6 -47 -9 -230 -36 -470 -132 -668 -269 -91 -62 -253 -215 -313 -294 -24 -32
-47 -60 -50 -63 -15 -12 -133 -200 -158 -250 -15 -30 -32 -64 -38 -75 -58
-106 -155 -381 -197 -559 -22 -94 -28 -120 -41 -186 -8 -39 -36 -221 -41 -262
-2 -21 -6 -57 -9 -80 -10 -88 -19 -297 -19 -408 1 -109 3 -119 33 -182 80
-165 306 -321 616 -426 106 -36 256 -78 305 -87 19 -3 51 -10 70 -15 46 -12
278 -48 360 -55 36 -4 76 -8 90 -10 127 -21 725 -22 835 -1 11 2 56 7 99 11
43 4 88 8 100 11 11 2 38 6 61 9 110 16 120 18 223 40 163 35 443 122 489 151
12 8 26 14 31 14 21 0 203 106 269 157 77 58 153 149 186 223 17 38 20 66 20
190 0 207 -20 458 -49 605 -2 11 -7 39 -10 61 -4 34 -45 222 -69 319 -16 67
-74 236 -112 330 -132 324 -323 594 -548 776 -65 52 -194 134 -280 177 -124
62 -330 129 -445 146 -19 2 -69 10 -111 16 -65 9 -364 21 -371 15z"/>
</g>
</svg>
